<svg xmlns="http://www.w3.org/2000/svg" viewBox="0 0 640 520"><defs><linearGradient id="a" x1="0" y1="0" x2="1" y2="1"><stop stop-color="#175cff"/><stop offset="1" stop-color="#00c6ff"/></linearGradient><linearGradient id="b" x1="0" y1="0" x2="1" y2="1"><stop stop-color="#12d68f"/><stop offset="1" stop-color="#9cffd6"/></linearGradient></defs><rect width="640" height="520" rx="42" fill="#fff"/><rect x="52" y="56" width="256" height="190" rx="30" fill="url(#a)"/><rect x="332" y="56" width="256" height="190" rx="30" fill="#ecf5ff"/><rect x="52" y="274" width="536" height="190" rx="30" fill="#071120"/><circle cx="180" cy="151" r="48" fill="#fff" opacity=".95"/><rect x="128" y="284" width="380" height="20" rx="10" fill="#fff" opacity=".95"/><rect x="128" y="328" width="300" height="14" rx="7" fill="#fff" opacity=".56"/><rect x="128" y="358" width="340" height="14" rx="7" fill="#fff" opacity=".36"/><rect x="370" y="98" width="170" height="20" rx="10" fill="#071120"/><rect x="370" y="142" width="136" height="14" rx="7" fill="#99a7bd"/><rect x="370" y="174" width="94" height="14" rx="7" fill="#cbd5e1"/><circle cx="510" cy="362" r="50" fill="url(#b)"/></svg>