<svg xmlns="http://www.w3.org/2000/svg" width="900" height="760" viewBox="0 0 900 760" role="img" aria-label="Digital marketing dashboard illustration">
  <defs>
    <linearGradient id="r" x1="0" x2="1" y1="0" y2="1"><stop stop-color="#ef0b16"/><stop offset="1" stop-color="#ff645b"/></linearGradient>
    <linearGradient id="d" x1="0" x2="1" y1="0" y2="1"><stop stop-color="#300607"/><stop offset="1" stop-color="#100102"/></linearGradient>
    <filter id="s" x="-20%" y="-20%" width="140%" height="140%"><feDropShadow dx="0" dy="32" stdDeviation="26" flood-color="#230506" flood-opacity=".18"/></filter>
  </defs>
  <rect width="900" height="760" rx="48" fill="#fff"/>
  <rect x="36" y="36" width="828" height="688" rx="36" fill="#fff7f7"/>
  <circle cx="737" cy="132" r="96" fill="#ffd9d8"/>
  <circle cx="735" cy="132" r="62" fill="url(#r)" opacity=".88"/>
  <path d="M116 138h420c24 0 44 20 44 44v164c0 24-20 44-44 44H116c-24 0-44-20-44-44V182c0-24 20-44 44-44Z" fill="url(#d)" filter="url(#s)"/>
  <text x="118" y="210" font-family="Inter,Arial" font-size="23" font-weight="800" fill="#fff">Campaign Performance</text>
  <text x="118" y="246" font-family="Inter,Arial" font-size="13" fill="#b99">Live paid media overview</text>
  <path d="M118 328 C178 268 215 322 268 276 S375 250 430 210 502 235 532 184" fill="none" stroke="#ef0b16" stroke-width="13" stroke-linecap="round"/>
  <path d="M118 340h420" stroke="#fff" stroke-opacity=".12"/><path d="M118 300h420" stroke="#fff" stroke-opacity=".12"/><path d="M118 260h420" stroke="#fff" stroke-opacity=".12"/>
  <rect x="626" y="258" width="210" height="270" rx="34" fill="#fff" filter="url(#s)"/>
  <rect x="660" y="300" width="142" height="18" rx="9" fill="#230506"/><rect x="660" y="332" width="96" height="12" rx="6" fill="#d9c1c1"/>
  <circle cx="730" cy="416" r="70" fill="#fff2f1"/><path d="M730 346a70 70 0 0 1 65 96" fill="none" stroke="#ef0b16" stroke-width="18" stroke-linecap="round"/><text x="697" y="429" font-family="Inter,Arial" font-size="36" font-weight="900" fill="#230506">3.8x</text>
  <rect x="90" y="442" width="220" height="184" rx="30" fill="#fff" filter="url(#s)"/><rect x="126" y="486" width="50" height="50" rx="16" fill="#ef0b16"/><rect x="194" y="492" width="78" height="14" rx="7" fill="#230506"/><rect x="194" y="522" width="48" height="10" rx="5" fill="#d9c1c1"/><rect x="126" y="568" width="146" height="14" rx="7" fill="#f0caca"/>
  <rect x="342" y="452" width="222" height="174" rx="30" fill="#fff" filter="url(#s)"/><rect x="376" y="492" width="154" height="16" rx="8" fill="#230506"/><rect x="376" y="530" width="42" height="58" rx="9" fill="#ef0b16"/><rect x="434" y="506" width="42" height="82" rx="9" fill="#230506"/><rect x="492" y="474" width="42" height="114" rx="9" fill="#ef0b16"/>
  <path d="M660 610h140" stroke="#230506" stroke-width="16" stroke-linecap="round"/><path d="M660 650h94" stroke="#ef0b16" stroke-width="16" stroke-linecap="round"/>
</svg>
