<svg xmlns="http://www.w3.org/2000/svg" viewBox="0 0 640 420"><defs><linearGradient id="g" x1="0" y1="0" x2="1" y2="1"><stop stop-color="#12d68f"/><stop offset="1" stop-color="#175cff"/></linearGradient></defs><rect width="640" height="420" rx="36" fill="#f0fff8"/><rect x="66" y="62" width="508" height="296" rx="30" fill="#fff" stroke="#dfe7f4"/><circle cx="152" cy="146" r="58" fill="url(#g)"/><path d="M130 151h48l-13 48h-22z" fill="#fff"/><rect x="252" y="102" width="230" height="22" rx="11" fill="#071120"/><rect x="252" y="142" width="282" height="14" rx="7" fill="#a6b2c6"/><rect x="252" y="172" width="208" height="14" rx="7" fill="#cbd5e1"/><rect x="98" y="250" width="112" height="58" rx="18" fill="#ecf5ff"/><rect x="236" y="250" width="112" height="58" rx="18" fill="#ecf5ff"/><rect x="374" y="250" width="112" height="58" rx="18" fill="#ecf5ff"/><path d="M110 292c32-44 66-22 96-40M248 292c28-30 58-18 90-48M388 292c30-52 58-12 86-34" fill="none" stroke="#175cff" stroke-width="8" stroke-linecap="round"/></svg>