<svg xmlns="http://www.w3.org/2000/svg" viewBox="0 0 24 24" fill="none" stroke="currentColor" stroke-width="2" stroke-linecap="round" stroke-linejoin="round">
  <path fill="#0081FB" d="M16.5 6C14.2 6 12.6 7.4 11.5 8.9C10.4 7.4 8.8 6 6.5 6C3.5 6 1.5 8.4 1.5 11.8C1.5 15.6 4.7 18.5 7.6 18.5C9.8 18.5 11.1 17.2 12 15.8C12.9 17.2 14.2 18.5 16.4 18.5C19.3 18.5 22.5 15.6 22.5 11.8C22.5 8.4 20.5 6 16.5 6ZM7.4 16.2C5.4 16.2 3.8 14.3 3.8 11.8C3.8 9.6 5 8.1 6.7 8.1C8.6 8.1 9.9 9.8 10.9 11.7C9.7 14.6 8.7 16.2 7.4 16.2ZM16.6 16.2C15.3 16.2 14.3 14.6 13.1 11.7C14.1 9.8 15.4 8.1 17.3 8.1C19 8.1 20.2 9.6 20.2 11.8C20.2 14.3 18.6 16.2 16.6 16.2Z"/>
</svg>
