<svg width="24" height="24" xmlns="http://www.w3.org/2000/svg" viewBox="0 0 24 24">
  <path fill="#25D366" d="M12 0C5.373 0 0 5.373 0 12c0 2.12.553 4.11 1.519 5.84L0 24l6.337-1.48C8.016 23.46 9.954 24 12 24c6.627 0 12-5.373 12-12S18.627 0 12 0zm0 22c-1.8 0-3.515-.472-5.011-1.296l-.359-.2-.375.09-3.725.871.984-3.633.098-.363-.223-.355C2.508 15.6 2 13.84 2 12c0-5.514 4.486-10 10-10s10 4.486 10 10-4.486 10-10 10zm5.45-7.53c-.3-.15-1.77-.87-2.04-.97-.27-.1-.47-.15-.67.15-.2.3-.77.97-.94 1.17-.17.2-.34.22-.64.07-.3-.15-1.268-.468-2.416-1.492-.893-.797-1.496-1.782-1.672-2.082-.176-.3-.019-.462.13-.61.135-.133.3-.35.45-.525.15-.175.2-.3.3-.5.1-.2.05-.375-.025-.525-.075-.15-.67-1.62-.92-2.22-.24-.58-.49-.5-.67-.51h-.57c-.2 0-.52.075-.79.375s-1.04 1.02-1.04 2.49 1.06 2.89 1.21 3.09c.15.2 2.09 3.19 5.06 4.47.71.3 1.26.49 1.69.63.71.22 1.36.19 1.87.12.57-.09 1.77-.72 2.02-1.42.25-.7.25-1.3.17-1.42-.07-.12-.27-.2-.57-.35z"/>
</svg>
