<svg width="24" height="24" xmlns="http://www.w3.org/2000/svg" viewBox="0 0 24 24">
  <path fill="#21759B" d="M12 0C5.373 0 0 5.373 0 12s5.373 12 12 12 12-5.373 12-12S18.627 0 12 0zm.15 1.15c5.38 0 9.8 3.92 10.63 9.07l-4.14-11.36c.21.36.36.78.36 1.25 0 1.28-.74 2.16-1.5 3.32l-2.02 3.51.67-5.79zm-7.65 0l5.88 16.08L6.85 7.64c-.66-1.12-1.17-2.01-1.17-3.05 0-1.29.93-2.31 2.32-2.31.29 0 .58.05.82.12zm7.5 21.7c-5.46 0-9.92-4-10.68-9.21l5.47 15.01 1.77-5.18.01.03 3.43-9.91 1.23 3.73-1.23 5.53zm9.1-9.7c.05.35.08.71.08 1.08 0 5.25-4.25 9.5-9.5 9.5-.72 0-1.42-.08-2.09-.23l3.85-11.16 2.39 6.57c.39 1.07.78 2.05.78 2.92 0 .7-.14 1.32-.38 1.88l4.87-10.56z"/>
</svg>
