<svg xmlns="http://www.w3.org/2000/svg" viewBox="0 0 24 24" fill="#21759B">
  <path d="M12 2a10 10 0 100 20 10 10 0 000-20zm0 1.25a8.75 8.75 0 016.9 3.37L15 16.5 12.3 9.2c.4-.02.78-.05.78-.05.37 0 .33-.55-.04-.55 0 0-1.1.09-1.8.09-.7 0-1.78-.09-1.78-.09-.37 0-.41.55-.04.55 0 0 .37.03.74.05L7.7 15.1 4.7 6.8A8.75 8.75 0 0112 3.25zM3.25 12c0-1.5.38-2.9 1.05-4.13l4.8 13.1A8.75 8.75 0 013.25 12zm8.75 8.75c-.75 0-1.48-.1-2.18-.28l2.92-8.48 2.98 8.16a8.7 8.7 0 01-3.72.6zm6.88-4.63l2.07-5.96a8.7 8.7 0 01-1.05 10.1l-1.02-4.14z"/>
</svg>
